Coordinates

Units are S.I. units (second, meters, Newtons, ...)
If the header above contains a line with 'inDegrees', this indicates whether rotational values are in degrees (yes) or radians (no).

inDegrees=no
nColumns=21
nRows=25
DataType=double
version=3
OpenSimVersion=4.6-2026-03-31-d6972f9e6
endheader
time	/jointset/ground_pelvis/pelvis_tilt/value	/jointset/ground_pelvis/pelvis_list/value	/jointset/ground_pelvis/pelvis_rotation/value	/jointset/ground_pelvis/pelvis_tx/value	/jointset/ground_pelvis/pelvis_ty/value	/jointset/ground_pelvis/pelvis_tz/value	/jointset/hip_r/hip_flexion_r/value	/jointset/hip_r/hip_adduction_r/value	/jointset/hip_r/hip_rotation_r/value	/jointset/walker_knee_r/knee_angle_r/value	/jointset/patellofemoral_r/knee_angle_r_beta/value	/jointset/ankle_r/ankle_angle_r/value	/jointset/subtalar_r/subtalar_angle_r/value	/jointset/hip_l/hip_flexion_l/value	/jointset/hip_l/hip_adduction_l/value	/jointset/hip_l/hip_rotation_l/value	/jointset/walker_knee_l/knee_angle_l/value	/jointset/patellofemoral_l/knee_angle_l_beta/value	/jointset/ankle_l/ankle_angle_l/value	/jointset/subtalar_l/subtalar_angle_l/value
139.996	-0.1059107791458682	-0.03244802088041461	1.56496964928336	0.8375072900000538	1.026374920000081	-1.023390270000068	-0.1146462426346874	-0.130929770111387	0.01780295300401946	1.427243679289376	1.427243680000092	-0.272530779800905	-0.2756107073540266	0.4267978330658348	0.1482563136794562	-0.0134418083940058	0.6232373212035467	0.6232373200000347	0.05736339618609788	-0.3790234325207676
140	-0.1067766363676445	-0.03274189151011288	1.565283651567041	0.837865350594368	1.023000407968627	-1.02219687443611	-0.09294730120036163	-0.1362285273443583	0.01878784081402997	1.465792747607682	1.465792748158351	-0.2655339800199757	-0.2904681701124522	0.4266108102584392	0.1508462213268119	-0.0122509722573103	0.646048003662287	0.6460480028125555	0.07632419923324325	-0.3856048321692256
140.004	-0.1075979659361154	-0.03299137132378506	1.565569718866528	0.8382257849191007	1.019676836367919	-1.021013908228738	-0.07127902862917404	-0.1414047463023752	0.01987857712653089	1.504015235686418	1.504015236079911	-0.2585052130138202	-0.3050435915655472	0.4261501373505098	0.1533893604206601	-0.01097317584911238	0.6684733978290751	0.6684733973236885	0.09508047378901449	-0.3921337041771801
140.008	-0.1083311096881832	-0.03315396463527445	1.565799181755091	0.8385909081869742	1.016454139437166	-1.019851551097687	-0.04966929107126796	-0.1463386968473712	0.02117695975856606	1.541592708499172	1.541592708741155	-0.251411124921067	-0.3190611140618289	0.4251494732284216	0.155839079908525	-0.009527138279382513	0.6901369092192364	0.6901369090398974	0.1134328749805698	-0.3985590311620915
140.012	-0.1089341948930553	-0.03319067724719275	1.565941964973147	0.8389629253698424	1.013380266209595	-1.01871950325193	-0.02814095719495359	-0.1509162262176093	0.0227769717887705	1.578222398280612	1.578222398379555	-0.244216001253822	-0.332257158730822	0.4233565450798869	0.158149084100088	-0.007842670496448078	0.7106788733818185	0.7106788735022924	0.1311919116747213	-0.4048327064554552
140.016	-0.1093680811644651	-0.03306717683405727	1.565966054070395	0.8393438891385612	1.010500254412045	-1.01762678975443	-0.006710689407463969	-0.1550313955495442	0.02476152227005379	1.613623614803276	1.613623614770625	-0.2368814948612352	-0.3443863151175928	0.4205389911458133	0.1602738542380651	-0.005865498615815363	0.729763970668039	0.7297639710552501	0.1481816758514189	-0.4109107596351779
140.02	-0.1095972625575088	-0.03275448203665988	1.565837184809951	0.8397356663741813	1.007855384010326	-1.016581607580147	0.01461115989888408	-0.1585888409298857	0.02719981270205252	1.647542738954218	1.647542738804557	-0.2293671745595778	-0.3552268793636555	0.4164891080289466	0.1621692509671747	-0.003561154746128321	0.7470875679630112	0.7470875685782865	0.1642423545670582	-0.4167543881890217
140.024	-0.1095906315352876	-0.03222920991533276	1.565518834617374	0.8401399104050348	1.005482440579943	-1.015591219277754	0.03581958883368844	-0.1615057127569788	0.03014536523815868	1.67975665841415	1.679756658165142	-0.2216318667231166	-0.36458589171952	0.4110274155515393	0.1637932544449404	-0.0009176502215225407	0.7623808207064114	0.7623808215068484	0.1792314192411966	-0.422330792979378
140.028	-0.1093220291380994	-0.03147342875064091	1.564972572610215	0.8405580360843068	1.003413119327082	-1.014661892923452	0.05691306668949556	-0.1637130818514292	0.03363469135749302	1.710074639262761	1.710074638934741	-0.2136356640827775	-0.3723035507009368	0.4040050035693676	0.1651067845283704	0.002053248910454288	0.775414440224545	0.7754144411643282	0.193023540179294	-0.4276138036383622
140.032	-0.1087705323601473	-0.03047423627834546	1.564158792601458	0.8409911952835164	1.001673590173102	-1.013798883187576	0.07789103387433705	-0.1651567474124694	0.03768654770837229	1.738338757521663	1.73833875713682	-0.2053424187826041	-0.3782569106222904	0.3953047589746083	0.1660745342858657	0.005316207552697614	0.7860011274267092	0.7860011284581405	0.2055094028948216	-0.4325842465537716
140.036	-0.1079204474452388	-0.02922334574593883	1.563037824615258	0.8414402499544945	1.000284220021448	-1.013006443037595	0.09875132533000679	-0.1657974248624613	0.04230170439310266	1.764423149113178	1.764423148694274	-0.1967224980715783	-0.3823627762380335	0.3848418314899925	0.1666657298425316	0.008813915666186981	0.7939968141615816	0.7939968152358206	0.2165937121952082	-0.4372299560540213
140.04	-0.1067609933376309	-0.02771703486564	1.56157139772178	0.8419057397167028	0.9992594297381094	-1.012287853172681	0.1194881609648239	-0.1656103314427488	0.04746312937709708	1.788232410390948	1.788232409959649	-0.1877555541980678	-0.3845797236409144	0.3725638421433263	0.1668547157042724	0.0124699416594203	0.7993009635080934	0.7993009645759646	0.2261927400421239	-0.441545299767411
140.044	-0.1052856884315038	-0.0259566013502788	1.55972439673884	0.8423878439669409	0.9986076736218862	-1.011645460544998	0.1400910540376358	-0.1645842216762228	0.05313649043769876	1.809699423749011	1.809699423324115	-0.178433072704883	-0.3849092364804883	0.3584510912830609	0.1666212833358625	0.01619263345356458	0.8018561455285734	0.801856146541873	0.2342317829954078	-0.4455301393953245
140.048	-0.1034914917437118	-0.02394915497146702	1.557466812603953	0.8428863431791581	0.9983315519747008	-1.011080724594179	0.1605445542606043	-0.162719954664104	0.05927090833417396	1.828782765486241	1.828782765082152	-0.1687605292328933	-0.3833960158950008	0.3425166145832987	0.1659507018630766	0.01987981006768555	0.8016469730407679	0.8016469739541574	0.2406428603112559	-0.4491882527068586
140.052	-0.1013777836419436	-0.02170847630414836	1.554775748690398	0.8434005856961572	0.9984280700159717	-1.010594273314011	0.1808285844237548	-0.1600287148274281	0.06579993925521385	1.845463802660372	1.845463802286019	-0.1587590463300587	-0.3801275172217773	0.3248058001553615	0.1648334504468745	0.02342393980931605	0.798698405647742	0.7986984064208775	0.2453629247843143	-0.4525253235053938
140.056	-0.0989453053475685	-0.019255778768214	1.551637327978495	0.8439294641812316	0.9988890382325705	-1.010185970238755	0.2009192351428103	-0.1565300638669538	0.07264281147107735	1.859743612842384	1.859743612500652	-0.1484663948501948	-0.3752325892126807	0.3053954244572465	0.1632646993128857	0.02671746559667614	0.793073443299138	0.7930734438985576	0.2483327657748478	-0.4555466512482201
140.06	-0.09619521458942462	-0.01662032228153092	1.548048344257669	0.8444714026590017	0.9997015900419822	-1.009854990359249	0.22078999255204	-0.1522500600417265	0.07970599957632765	1.87163990179424	1.871639901482034	-0.137937027067444	-0.3688787748013814	0.2843921309195512	0.1612436489545569	0.0296579267684406	0.784870271751858	0.7848702721523451	0.2494966511662399	-0.4582547752109545
140.064	-0.09312842405123058	-0.01383983159162648	1.544017505228807	0.8450243537718719	1.00084878530736	-1.009599900726918	0.2404133441054257	-0.1472196914597839	0.08688525362505539	1.881184091929957	1.881184091639036	-0.1272407732447313	-0.3612677097916362	0.2619304063209469	0.1587728758674178	0.03215254545614311	0.7742189448836142	0.7742189450689358	0.2488026304944302	-0.4606472463567849
140.068	-0.08974532307417328	-0.01096060827549009	1.53956613475095	0.8455858084414113	1.002310273113012	-1.009418742670515	0.2597625803655637	-0.1414737687806946	0.09406814881424164	1.888418683298688	1.888418683017184	-0.1164601274239019	-0.3526284897838732	0.2381700301454605	0.1558577908107297	0.03412200717345466	0.7612776797804875	0.7612776797434579	0.246203385323121	-0.4627147587438733
140.072	-0.08604587523840018	-0.008037177337216924	1.534728244631069	0.8461528249705419	1.004062996742426	-1.009309116015427	0.2788134986186855	-0.1350502544669048	0.1011371138689196	1.893394885489071	1.893394885203267	-0.1056865456772837	-0.3432096083203403	0.213292884661773	0.15250622134565	0.0355032487829369	0.7462288076025851	0.7462288073445218	0.2416575461595529	-0.4644397712937036
140.076	-0.0820300449606419	-0.005131282082961086	1.529549933563268	0.8467220860056355	1.006081932110007	-1.009268268417776	0.2975456433689994	-0.1279899407653341	0.107972849618954	1.896170454958547	1.896170454654448	-0.09501635184442851	-0.3332703004368492	0.1874989446302359	0.1487281118162321	0.0362511365385506	0.7292743698692893	0.7292743693991643	0.2351313682814357	-0.4657957320511577
140.08	-0.07769853399483619	-0.002310091622301003	1.524088123473594	0.8472899846426397	1.008340849048949	-1.00929319238234	0.3159427675103496	-0.1203364550127983	0.1144580523624369	1.89680768471628	1.896807684380761	-0.08454660033549036	-0.3230717555441323	0.1610013100815707	0.1445354024595058	0.03633901311880726	0.7106313350027892	0.7106313343364554	0.2266005738573333	-0.4667470707106082
140.084	-0.07305377405417664	0.0003562826157653638	1.518408734161126	0.847852729354689	1.010813066381726	-1.009380727428325	0.3339924842164795	-0.1121365759079608	0.1204812731570477	1.895371551455461	1.895371551077052	-0.07437112309068733	-0.3128685063673095	0.134020446858696	0.1399421413539596	0.03575824490244151	0.690526522276411	0.6905265214360411	0.2160521858668368	-0.4672500508135811
140.088	-0.06810101981740684	0.002797609571184728	1.512584480604711	0.8484064529821508	1.013472153974721	-1.009527659164127	0.3516854012959947	-0.1034407241204319	0.1259406213603078	1.89192806406837	1.891928063637714	-0.06457713584020149	-0.3029005537871284	0.1067781442914177	0.1349647590552021	0.03451699625881598	0.6691914830556206	0.6691914820691449	0.20348630279231	-0.4672543376421233
140.092	-0.06284934278959982	0.004946321325628668	1.506692469832682	0.8489473175762396	1.016292538795093	-1.009730806286244	0.3690140797996161	-0.09430340043631888	0.1307470312582955	1.886542851565037	1.886542851074951	-0.0552427870171575	-0.2933868365342492	0.07949174118308831	0.1296223447445233	0.03263840715142265	0.6468576368695932	0.64685763576977	0.1889178335865386	-0.4667049714592789
